<svg viewBox="0 0 446.6000061035156 400" xmlns="http://www.w3.org/2000/svg"><g><g><g><g><g><line x1="51.125" y1="375" x2="46.125" y2="375" style="visibility: inherit;" fill="rgb(0, 0, 0)" stroke="rgb(204, 204, 204)" stroke-width="1px"></line><line x1="51.125" y1="328.12499999999994" x2="46.125" y2="328.12499999999994" style="visibility: inherit;" fill="rgb(0, 0, 0)" stroke="rgb(204, 204, 204)" stroke-width="1px"></line><line x1="51.125" y1="281.25000000000006" x2="46.125" y2="281.25000000000006" style="visibility: inherit;" fill="rgb(0, 0, 0)" stroke="rgb(204, 204, 204)" stroke-width="1px"></line><line x1="51.125" y1="234.375" x2="46.125" y2="234.375" style="visibility: inherit;" fill="rgb(0, 0, 0)" stroke="rgb(204, 204, 204)" stroke-width="1px"></line><line x1="51.125" y1="187.49999999999991" x2="46.125" y2="187.49999999999991" style="visibility: inherit;" fill="rgb(0, 0, 0)" stroke="rgb(204, 204, 204)" stroke-width="1px"></line><line x1="51.125" y1="140.625" x2="46.125" y2="140.625" style="visibility: inherit;" fill="rgb(0, 0, 0)" stroke="rgb(204, 204, 204)" stroke-width="1px"></line><line x1="51.125" y1="93.74999999999996" x2="46.125" y2="93.74999999999996" style="visibility: inherit;" fill="rgb(0, 0, 0)" stroke="rgb(204, 204, 204)" stroke-width="1px"></line><line x1="51.125" y1="46.874999999999915" x2="46.125" y2="46.874999999999915" style="visibility: inherit;" fill="rgb(0, 0, 0)" stroke="rgb(204, 204, 204)" stroke-width="1px"></line><line x1="51.125" y1="0" x2="46.125" y2="0" style="visibility: inherit;" fill="rgb(0, 0, 0)" stroke="rgb(204, 204, 204)" stroke-width="1px"></line></g><g transform="translate(41.125, 0)"><text x="0" y="375" dx="0em" dy="0.3em" style="text-anchor: end; visibility: hidden; font-family: Roboto, sans-serif; font-size: 12px; font-weight: 200;" fill="rgb(50, 49, 63)" stroke="none" stroke-width="1px">0.16</text><text x="0" y="328.12499999999994" dx="0em" dy="0.3em" style="text-anchor: end; visibility: inherit; font-family: Roboto, sans-serif; font-size: 12px; font-weight: 200;" fill="rgb(50, 49, 63)" stroke="none" stroke-width="1px">0.17</text><text x="0" y="281.25000000000006" dx="0em" dy="0.3em" style="text-anchor: end; visibility: inherit; font-family: Roboto, sans-serif; font-size: 12px; font-weight: 200;" fill="rgb(50, 49, 63)" stroke="none" stroke-width="1px">0.18</text><text x="0" y="234.375" dx="0em" dy="0.3em" style="text-anchor: end; visibility: inherit; font-family: Roboto, sans-serif; font-size: 12px; font-weight: 200;" fill="rgb(50, 49, 63)" stroke="none" stroke-width="1px">0.19</text><text x="0" y="187.49999999999991" dx="0em" dy="0.3em" style="text-anchor: end; visibility: inherit; font-family: Roboto, sans-serif; font-size: 12px; font-weight: 200;" fill="rgb(50, 49, 63)" stroke="none" stroke-width="1px">0.2</text><text x="0" y="140.625" dx="0em" dy="0.3em" style="text-anchor: end; visibility: inherit; font-family: Roboto, sans-serif; font-size: 12px; font-weight: 200;" fill="rgb(50, 49, 63)" stroke="none" stroke-width="1px">0.21</text><text x="0" y="93.74999999999996" dx="0em" dy="0.3em" style="text-anchor: end; visibility: inherit; font-family: Roboto, sans-serif; font-size: 12px; font-weight: 200;" fill="rgb(50, 49, 63)" stroke="none" stroke-width="1px">0.22</text><text x="0" y="46.874999999999915" dx="0em" dy="0.3em" style="text-anchor: end; visibility: inherit; font-family: Roboto, sans-serif; font-size: 12px; font-weight: 200;" fill="rgb(50, 49, 63)" stroke="none" stroke-width="1px">0.23</text><text x="0" y="0" dx="0em" dy="0.3em" style="text-anchor: end; visibility: hidden; font-family: Roboto, sans-serif; font-size: 12px; font-weight: 200;" fill="rgb(50, 49, 63)" stroke="none" stroke-width="1px">0.24</text></g><line x1="51.125" y1="0" x2="51.125" y2="375" fill="rgb(0, 0, 0)" stroke="rgb(204, 204, 204)" stroke-width="1px"></line></g></g><g transform="translate(51, 0)" clip-path="url(#clip_0)"><clipPath id="clip_0"><rect width="395" height="375"></rect></clipPath><g><g><g><line x1="0" y1="0" x2="0" y2="375" fill="rgb(0, 0, 0)" stroke="rgb(60, 60, 60)" stroke-width="1px" opacity="0.25"></line><line x1="43.94166666666667" y1="0" x2="43.94166666666667" y2="375" fill="rgb(0, 0, 0)" stroke="rgb(60, 60, 60)" stroke-width="1px" opacity="0.25"></line><line x1="87.88333333333334" y1="0" x2="87.88333333333334" y2="375" fill="rgb(0, 0, 0)" stroke="rgb(60, 60, 60)" stroke-width="1px" opacity="0.25"></line><line x1="131.825" y1="0" x2="131.825" y2="375" fill="rgb(0, 0, 0)" stroke="rgb(60, 60, 60)" stroke-width="1px" opacity="0.25"></line><line x1="175.76666666666668" y1="0" x2="175.76666666666668" y2="375" fill="rgb(0, 0, 0)" stroke="rgb(60, 60, 60)" stroke-width="1px" opacity="0.25"></line><line x1="219.70833333333334" y1="0" x2="219.70833333333334" y2="375" fill="rgb(0, 0, 0)" stroke="rgb(60, 60, 60)" stroke-width="1px" opacity="0.25"></line><line x1="263.65" y1="0" x2="263.65" y2="375" fill="rgb(0, 0, 0)" stroke="rgb(60, 60, 60)" stroke-width="1px" opacity="0.25"></line><line x1="307.5916666666667" y1="0" x2="307.5916666666667" y2="375" fill="rgb(0, 0, 0)" stroke="rgb(60, 60, 60)" stroke-width="1px" opacity="0.25"></line><line x1="351.53333333333336" y1="0" x2="351.53333333333336" y2="375" fill="rgb(0, 0, 0)" stroke="rgb(60, 60, 60)" stroke-width="1px" opacity="0.25"></line><line x1="395.475" y1="0" x2="395.475" y2="375" fill="rgb(0, 0, 0)" stroke="rgb(60, 60, 60)" stroke-width="1px" opacity="0.25"></line></g><g><line x1="0" y1="375" x2="395.475" y2="375" fill="rgb(0, 0, 0)" stroke="rgb(60, 60, 60)" stroke-width="1px" opacity="0.25"></line><line x1="0" y1="328.12499999999994" x2="395.475" y2="328.12499999999994" fill="rgb(0, 0, 0)" stroke="rgb(60, 60, 60)" stroke-width="1px" opacity="0.25"></line><line x1="0" y1="281.25000000000006" x2="395.475" y2="281.25000000000006" fill="rgb(0, 0, 0)" stroke="rgb(60, 60, 60)" stroke-width="1px" opacity="0.25"></line><line x1="0" y1="234.375" x2="395.475" y2="234.375" fill="rgb(0, 0, 0)" stroke="rgb(60, 60, 60)" stroke-width="1px" opacity="0.25"></line><line x1="0" y1="187.49999999999991" x2="395.475" y2="187.49999999999991" fill="rgb(0, 0, 0)" stroke="rgb(60, 60, 60)" stroke-width="1px" opacity="0.25"></line><line x1="0" y1="140.625" x2="395.475" y2="140.625" fill="rgb(0, 0, 0)" stroke="rgb(60, 60, 60)" stroke-width="1px" opacity="0.25"></line><line x1="0" y1="93.74999999999996" x2="395.475" y2="93.74999999999996" fill="rgb(0, 0, 0)" stroke="rgb(60, 60, 60)" stroke-width="1px" opacity="0.25"></line><line x1="0" y1="46.874999999999915" x2="395.475" y2="46.874999999999915" fill="rgb(0, 0, 0)" stroke="rgb(60, 60, 60)" stroke-width="1px" opacity="0.25"></line><line x1="0" y1="0" x2="395.475" y2="0" fill="rgb(0, 0, 0)" stroke="rgb(60, 60, 60)" stroke-width="1px" opacity="0.25"></line></g></g></g><g><g><line x1="0" y1="1125.0000000000002" x2="395.475" y2="1125.0000000000002" fill="rgb(0, 0, 0)" stroke="rgb(153, 153, 153)" stroke-width="1.5px"></line></g></g><g><g><line x1="43.94166666666667" y1="0" x2="43.94166666666667" y2="375" fill="rgb(0, 0, 0)" stroke="rgb(153, 153, 153)" stroke-width="1.5px"></line></g></g><g><g><g><g><g><path stroke="rgb(0, 119, 187)" stroke-width="2px" d="M43.94166666666667,397.58617244660854L52.730000000000004,333.6494535764499L61.51833333333334,294.5321074969396L70.30666666666667,243.92384312993866L79.09500000000001,218.37039000994977L87.88333333333334,208.9314016210963L96.67166666666667,190.7076514410653L105.46000000000001,178.94248391310063L114.24833333333333,182.55090865846375L123.03666666666668,163.91687765424928L131.825,191.6142635023302L140.61333333333334,184.93976400858315L149.40166666666667,174.67842036163572L158.19000000000003,163.00841316497468L166.97833333333335,155.19971303775785L175.76666666666668,143.28288861450463L184.555,135.93033689788024L193.34333333333333,126.69963205302382L202.13166666666666,127.4915354265606L210.92000000000002,111.65814128480746L219.70833333333334,108.77115596847446L228.49666666666667,122.55261657656857L237.285,106.05090489096622L246.07333333333335,98.14216855395506L254.8616666666667,86.82914645057116L263.65,100.27418874508932L272.43833333333333,86.38784704286917L281.2266666666667,82.3959274104888L290.015,86.15666522390138L298.80333333333334,79.55226653961992L307.5916666666667,76.8845029005139L316.38000000000005,63.22858212736659L325.16833333333335,57.06350266842204L333.9566666666667,55.38609152087419L342.745,49.643639422101856L351.53333333333336,40.420141808160146L360.32166666666666,39.00798944029708L369.11,29.949992345003437L377.89833333333337,28.49194004318452L386.68666666666667,33.440347298285374" style="fill: none;" fill="none"></path></g><g><path stroke="rgb(255, 112, 67)" stroke-width="2px" d="M52.730000000000004,386.50649493378546L61.51833333333334,331.9868739599722L70.30666666666667,292.9846778990964L79.09500000000001,255.6681823427231L87.88333333333334,232.2442941406906L96.67166666666667,214.44646903122566L105.46000000000001,195.89995160588737L114.24833333333333,185.34370931269868L123.03666666666668,176.51972341396697L131.825,166.85649222946057L140.61333333333334,163.75670452028743L149.40166666666667,157.94974330632564L158.19000000000003,152.86148374211885L166.97833333333335,146.86958639733382L175.76666666666668,142.57124829494717L184.555,139.7030115774234L193.34333333333333,136.56810150263226L202.13166666666666,129.4863435751244L210.92000000000002,128.05271128832186L219.70833333333334,124.99623416050865L228.49666666666667,120.78520513253476L237.285,117.06552541197546L246.07333333333335,111.26577562598952L254.8616666666667,108.61999904078615L263.65,104.14197801404846L272.43833333333333,100.69318661654123L281.2266666666667,99.10095218235595L290.015,93.65825326856887L298.80333333333334,89.13460728970242L307.5916666666667,86.85442679185181L316.38000000000005,85.18312391309826L325.16833333333335,80.95200706181429L333.9566666666667,78.61887009956459L342.745,75.53928861132351L351.53333333333336,73.949987941063L360.32166666666666,70.8812378057875L369.11,66.9952387490783L377.89833333333337,62.77741332350478L386.68666666666667,60.11996285350146" style="fill: none;" fill="none"></path></g></g></g></g><g opacity="0.2"><g><g><g><path stroke="rgb(0, 119, 187)" stroke-width="2px" d="M43.94166666666667,397.58617244660854L52.730000000000004,286.78383864462376L61.51833333333334,244.8417730629444L70.30666666666667,159.70552526414394L79.09500000000001,168.46957337111235L87.88333333333334,188.50162345916033L96.67166666666667,148.43752328306437L105.46000000000001,150.31548868864775L114.24833333333333,191.6316356509924L123.03666666666668,115.88542442768808L131.825,264.2477648332715L140.61333333333334,167.21752658486366L149.40166666666667,147.18547649681568L158.19000000000003,131.53548538684842L166.97833333333335,134.0394392609596L175.76666666666668,110.87737698107954L184.555,115.88542442768808L193.34333333333333,101.48741025477644L202.13166666666666,129.65745013207194L210.92000000000002,68.3093229308724L219.70833333333334,100.86135193705555L228.49666666666667,160.33151373267174L237.285,60.79725176095958L246.07333333333335,76.44731272011991L254.8616666666667,55.789274163544135L263.65,137.1694514527917L272.43833333333333,48.277272842824416L281.2266666666667,71.43933512270446L290.015,96.47936280816789L298.80333333333334,61.42331007868047L307.5916666666667,69.56129986792799L316.38000000000005,25.741199031472163L325.16833333333335,40.13921320438381L333.9566666666667,50.78122671693559L342.745,33.879188820719676L351.53333333333336,15.09918551892038L360.32166666666666,35.13123560696836L369.11,5.083160474896389L377.89833333333337,24.48915224522348L386.68666666666667,47.02522605657573" style="fill: none;" fill="none"></path></g><g><path stroke="rgb(255, 112, 67)" stroke-width="2px" d="M43.94166666666667,485.3974347934127L52.730000000000004,314.0194360166788L61.51833333333334,262.73119915276766L70.30666666666667,228.08027174323797L79.09500000000001,182.7964810654521L87.88333333333334,181.54555186629295L96.67166666666667,173.1642773374915L105.46000000000001,150.77258180826902L114.24833333333333,158.7785566225648L123.03666666666668,153.7748398259282L131.825,141.5156777948141L140.61333333333334,155.52609879523516L149.40166666666667,142.39130727946758L158.19000000000003,139.13891930133104L166.97833333333335,130.63254486769435L175.76666666666668,130.8827446773648L184.555,131.8834740668535L193.34333333333333,128.00558656454083L202.13166666666666,110.11720821261402L210.92000000000002,124.12769906222816L219.70833333333334,116.62205401808019L228.49666666666667,109.24157872796054L237.285,106.86482023447748L246.07333333333335,95.35618778318162L254.8616666666667,101.3607038185L263.65,91.85359999537464L272.43833333333333,91.22810047119852L281.2266666666667,94.7307581081986L290.015,78.71880847960706L298.80333333333334,76.71727985143657L307.5916666666667,80.59516735374923L316.38000000000005,80.59516735374923L325.16833333333335,69.33680456131692L333.9566666666667,72.21389282494779L342.745,67.08507612347599L351.53333333333336,69.58693452179428L360.32166666666666,62.45665904134508L369.11,56.32704310119148L377.89833333333337,51.19822639971967L386.68666666666667,52.82445531338449" style="fill: none;" fill="none"></path></g></g></g></g></g><g><g><span fill="rgb(0, 0, 0)" stroke="none" stroke-width="1px">Alt + Scroll to Zoom</span></g></g></g><g transform="translate(51, 375)" clip-path="url(#clip_1)"><clipPath id="clip_1"><rect width="395" height="25"></rect></clipPath><g><g><line x1="0" y1="0" x2="0" y2="5" style="visibility: inherit;" fill="rgb(0, 0, 0)" stroke="rgb(204, 204, 204)" stroke-width="1px"></line><line x1="43.94166666666667" y1="0" x2="43.94166666666667" y2="5" style="visibility: inherit;" fill="rgb(0, 0, 0)" stroke="rgb(204, 204, 204)" stroke-width="1px"></line><line x1="87.88333333333334" y1="0" x2="87.88333333333334" y2="5" style="visibility: inherit;" fill="rgb(0, 0, 0)" stroke="rgb(204, 204, 204)" stroke-width="1px"></line><line x1="131.825" y1="0" x2="131.825" y2="5" style="visibility: inherit;" fill="rgb(0, 0, 0)" stroke="rgb(204, 204, 204)" stroke-width="1px"></line><line x1="175.76666666666668" y1="0" x2="175.76666666666668" y2="5" style="visibility: inherit;" fill="rgb(0, 0, 0)" stroke="rgb(204, 204, 204)" stroke-width="1px"></line><line x1="219.70833333333334" y1="0" x2="219.70833333333334" y2="5" style="visibility: inherit;" fill="rgb(0, 0, 0)" stroke="rgb(204, 204, 204)" stroke-width="1px"></line><line x1="263.65" y1="0" x2="263.65" y2="5" style="visibility: inherit;" fill="rgb(0, 0, 0)" stroke="rgb(204, 204, 204)" stroke-width="1px"></line><line x1="307.5916666666667" y1="0" x2="307.5916666666667" y2="5" style="visibility: inherit;" fill="rgb(0, 0, 0)" stroke="rgb(204, 204, 204)" stroke-width="1px"></line><line x1="351.53333333333336" y1="0" x2="351.53333333333336" y2="5" style="visibility: inherit;" fill="rgb(0, 0, 0)" stroke="rgb(204, 204, 204)" stroke-width="1px"></line><line x1="395.475" y1="0" x2="395.475" y2="5" style="visibility: inherit;" fill="rgb(0, 0, 0)" stroke="rgb(204, 204, 204)" stroke-width="1px"></line></g><g transform="translate(0, 8)"><text x="0" y="0" dx="0em" dy="0.95em" style="text-anchor: middle; visibility: hidden; font-family: Roboto, sans-serif; font-size: 12px; font-weight: 200;" fill="rgb(50, 49, 63)" stroke="none" stroke-width="1px">-5</text><text x="43.94166666666667" y="0" dx="0em" dy="0.95em" style="text-anchor: middle; visibility: inherit; font-family: Roboto, sans-serif; font-size: 12px; font-weight: 200;" fill="rgb(50, 49, 63)" stroke="none" stroke-width="1px">0</text><text x="87.88333333333334" y="0" dx="0em" dy="0.95em" style="text-anchor: middle; visibility: inherit; font-family: Roboto, sans-serif; font-size: 12px; font-weight: 200;" fill="rgb(50, 49, 63)" stroke="none" stroke-width="1px">5</text><text x="131.825" y="0" dx="0em" dy="0.95em" style="text-anchor: middle; visibility: inherit; font-family: Roboto, sans-serif; font-size: 12px; font-weight: 200;" fill="rgb(50, 49, 63)" stroke="none" stroke-width="1px">10</text><text x="175.76666666666668" y="0" dx="0em" dy="0.95em" style="text-anchor: middle; visibility: inherit; font-family: Roboto, sans-serif; font-size: 12px; font-weight: 200;" fill="rgb(50, 49, 63)" stroke="none" stroke-width="1px">15</text><text x="219.70833333333334" y="0" dx="0em" dy="0.95em" style="text-anchor: middle; visibility: inherit; font-family: Roboto, sans-serif; font-size: 12px; font-weight: 200;" fill="rgb(50, 49, 63)" stroke="none" stroke-width="1px">20</text><text x="263.65" y="0" dx="0em" dy="0.95em" style="text-anchor: middle; visibility: inherit; font-family: Roboto, sans-serif; font-size: 12px; font-weight: 200;" fill="rgb(50, 49, 63)" stroke="none" stroke-width="1px">25</text><text x="307.5916666666667" y="0" dx="0em" dy="0.95em" style="text-anchor: middle; visibility: inherit; font-family: Roboto, sans-serif; font-size: 12px; font-weight: 200;" fill="rgb(50, 49, 63)" stroke="none" stroke-width="1px">30</text><text x="351.53333333333336" y="0" dx="0em" dy="0.95em" style="text-anchor: middle; visibility: inherit; font-family: Roboto, sans-serif; font-size: 12px; font-weight: 200;" fill="rgb(50, 49, 63)" stroke="none" stroke-width="1px">35</text><text x="395.475" y="0" dx="0em" dy="0.95em" style="text-anchor: middle; visibility: hidden; font-family: Roboto, sans-serif; font-size: 12px; font-weight: 200;" fill="rgb(50, 49, 63)" stroke="none" stroke-width="1px">40</text></g><line x1="0" y1="0" x2="395.475" y2="0" fill="rgb(0, 0, 0)" stroke="rgb(204, 204, 204)" stroke-width="1px"></line></g></g></g></g></svg>